<svg width="100%" height="100%" viewBox="0 0 198 124" fill="none" xmlns="http://www.w3.org/2000/svg">
<path d="M194.906 17.9437C189.956 7.425 179.438 0 167.062 0H92.8125C80.4375 0 69.9188 7.425 64.9688 17.9437L129.938 66.825L194.906 17.9437Z" fill="black"/>
<path d="M133.65 79.2C132.413 79.8187 131.175 80.4375 129.938 80.4375C128.7 80.4375 127.462 79.8187 126.225 79.2L73.6312 39.6L61.875 30.9375H24.75C21.0375 30.9375 18.5625 33.4125 18.5625 37.125C18.5625 40.8375 21.0375 43.3125 24.75 43.3125H55.6875C59.4 43.3125 61.875 45.7875 61.875 49.5C61.875 53.2125 59.4 55.6875 55.6875 55.6875H6.1875C2.475 55.6875 0 58.1625 0 61.875C0 65.5875 2.475 68.0625 6.1875 68.0625H55.6875C59.4 68.0625 61.875 70.5375 61.875 74.25C61.875 77.9625 59.4 80.4375 55.6875 80.4375H24.75C21.0375 80.4375 18.5625 82.9125 18.5625 86.625C18.5625 90.3375 21.0375 92.8125 24.75 92.8125H61.875C61.875 110.137 75.4875 123.75 92.8125 123.75H167.062C184.387 123.75 198 110.137 198 92.8125V30.9375L133.65 79.2Z" fill="black"/>
</svg>
