<svg width="34" height="25" viewBox="0 0 34 25" fill="none" xmlns="http://www.w3.org/2000/svg">
<path d="M4.42578 11.9307V17.0977H7.51953C7.73438 17.0977 7.88835 17.1406 7.98145 17.2266C8.07454 17.3053 8.12109 17.4128 8.12109 17.5488C8.12109 17.6777 8.07454 17.7852 7.98145 17.8711C7.88835 17.957 7.73438 18 7.51953 18H2.30957C2.09473 18 1.94076 17.957 1.84766 17.8711C1.75456 17.7852 1.70801 17.6777 1.70801 17.5488C1.70801 17.4128 1.75456 17.3053 1.84766 17.2266C1.94076 17.1406 2.09473 17.0977 2.30957 17.0977H3.52344V6.33398H2.30957C2.09473 6.33398 1.94076 6.2946 1.84766 6.21582C1.75456 6.12988 1.70801 6.01888 1.70801 5.88281C1.70801 5.74674 1.76172 5.63216 1.86914 5.53906C1.94792 5.46745 2.09473 5.43164 2.30957 5.43164H12.2461V8.53613C12.2461 8.75098 12.2031 8.90495 12.1172 8.99805C12.0312 9.09115 11.9238 9.1377 11.7949 9.1377C11.6589 9.1377 11.5479 9.09115 11.4619 8.99805C11.376 8.90495 11.333 8.75098 11.333 8.53613V6.33398H4.42578V11.0283H7.65918V10.0078C7.65918 9.79297 7.70215 9.639 7.78809 9.5459C7.87402 9.4528 7.98503 9.40625 8.12109 9.40625C8.25 9.40625 8.35742 9.4528 8.44336 9.5459C8.5293 9.639 8.57227 9.79297 8.57227 10.0078V12.9512C8.57227 13.166 8.5293 13.32 8.44336 13.4131C8.35742 13.5062 8.25 13.5527 8.12109 13.5527C7.98503 13.5527 7.87402 13.5062 7.78809 13.4131C7.70215 13.32 7.65918 13.166 7.65918 12.9512V11.9307H4.42578ZM18.251 6.33398V17.0977H24.2451V13.5098C24.2451 13.2949 24.2881 13.141 24.374 13.0479C24.46 12.9548 24.571 12.9082 24.707 12.9082C24.8359 12.9082 24.9434 12.9548 25.0293 13.0479C25.1152 13.1338 25.1582 13.2878 25.1582 13.5098V18H15.1895C14.9746 18 14.8206 17.957 14.7275 17.8711C14.6344 17.7852 14.5879 17.6777 14.5879 17.5488C14.5879 17.4128 14.6344 17.3053 14.7275 17.2266C14.8206 17.1406 14.9746 17.0977 15.1895 17.0977H17.3379V6.33398H15.1895C14.9746 6.33398 14.8206 6.2946 14.7275 6.21582C14.6344 6.12988 14.5879 6.01888 14.5879 5.88281C14.5879 5.74674 14.6344 5.63932 14.7275 5.56055C14.8206 5.47461 14.9746 5.43164 15.1895 5.43164H20.3994C20.6143 5.43164 20.7682 5.47461 20.8613 5.56055C20.9544 5.63932 21.001 5.74674 21.001 5.88281C21.001 6.01888 20.9544 6.12988 20.8613 6.21582C20.7682 6.2946 20.6143 6.33398 20.3994 6.33398H18.251Z" fill="white"/>
<circle cx="31" cy="18" r="3" fill="white"/>
</svg>
